<svg width="512" height="140" viewBox="0 0 512 140" fill="none" xmlns="http://www.w3.org/2000/svg">
  <title>GullyCric</title>
  <defs>
    <linearGradient id="gullycric-emblem" x1="18" y1="18" x2="122" y2="122" gradientUnits="userSpaceOnUse">
      <stop stop-color="#FB923C"/>
      <stop offset="1" stop-color="#F97316"/>
    </linearGradient>
    <linearGradient id="gullycric-text" x1="158" y1="32" x2="470" y2="110" gradientUnits="userSpaceOnUse">
      <stop stop-color="#F8FAFC"/>
      <stop offset="1" stop-color="#CBD5E1"/>
    </linearGradient>
  </defs>
  <rect x="8" y="10" width="124" height="124" rx="34" fill="#020617"/>
  <rect x="8.75" y="10.75" width="122.5" height="122.5" rx="33.25" stroke="#38BDF8" stroke-opacity="0.18" stroke-width="1.5"/>
  <path d="M46 34C59.2548 22.9544 75.7624 17.8295 92.1825 19.6264C98.2344 20.2887 103.799 22.0634 108.5 24.5L101.81 36.8417C97.8294 34.7799 93.7339 33.6911 89.0972 33.1838C76.6055 31.8168 63.8489 35.7152 53.7025 44.1726C43.5561 52.63 36.8569 64.9516 35.0743 78.4635C33.2916 91.9755 36.5735 105.609 44.2019 116.203C51.8304 126.796 63.1302 133.616 75.4995 135.207C84.8545 136.41 94.3221 134.386 102.366 129.455L108.887 141.91C97.335 148.978 83.7492 151.838 70.3729 150.116C54.1405 148.028 39.2856 139.027 29.2727 125.122C19.2598 111.216 14.9501 93.3149 17.2929 75.5537C19.6358 57.7925 28.4352 41.0456 41.6899 30L46 34Z" fill="url(#gullycric-emblem)"/>
  <path d="M90.0938 38.8438L101.279 32.375L112.463 51.7188L101.278 58.1875L90.0938 38.8438Z" fill="#E2E8F0"/>
  <path d="M72.0625 58.9375C72.0625 55.4867 74.8617 52.6875 78.3125 52.6875H86.5625C90.0133 52.6875 92.8125 55.4867 92.8125 58.9375V91.375C92.8125 94.8258 90.0133 97.625 86.5625 97.625H78.3125C74.8617 97.625 72.0625 94.8258 72.0625 91.375V58.9375Z" fill="#F8FAFC"/>
  <circle cx="96.5" cy="90.5" r="11.5" fill="#EF4444"/>
  <path d="M90.9062 83.625C94.1875 86.6875 98.8125 90.8125 102.094 97.375" stroke="#FEE2E2" stroke-width="2.4" stroke-linecap="round"/>
  <path d="M96.5 79.25C99.0312 83.0625 101.188 87.4688 102.969 92.4688" stroke="#FEE2E2" stroke-width="2.2" stroke-linecap="round"/>
  <path d="M158.445 96V41.6H173.133V83.52H196.301V96H158.445ZM205.069 96V41.6H241.341V53.44H219.437V62.368H239.245V73.984H219.437V84.16H242.269V96H205.069ZM273.573 97.008C268.51 97.008 263.862 95.7867 259.629 93.344C255.449 90.9013 252.094 87.52 249.565 83.2C247.089 78.88 245.853 73.9573 245.853 68.432C245.853 62.9067 247.089 57.984 249.565 53.664C252.094 49.344 255.449 45.9627 259.629 43.52C263.862 41.0773 268.51 39.856 273.573 39.856C279.366 39.856 284.393 41.296 288.653 44.176C292.921 47.056 295.862 51.056 297.477 56.176L285.125 61.36C284.19 58.5013 282.702 56.2827 280.661 54.704C278.673 53.072 276.273 52.256 273.461 52.256C270.782 52.256 268.414 52.9573 266.357 54.36C264.353 55.7093 262.782 57.584 261.645 59.984C260.561 62.384 260.021 65.2 260.021 68.432C260.021 71.664 260.561 74.48 261.645 76.88C262.782 79.28 264.353 81.184 266.357 82.592C268.414 83.9413 270.782 84.616 273.461 84.616C276.273 84.616 278.673 83.8267 280.661 82.248C282.702 80.616 284.19 78.3707 285.125 75.512L297.477 80.696C295.862 85.816 292.921 89.816 288.653 92.696C284.393 95.5707 279.366 97.008 273.573 97.008ZM306.663 96V41.6H320.999V96H306.663ZM334.991 96V41.6H349.327V96H334.991ZM362.527 96V41.6H376.863V83.52H399.103V96H362.527ZM407.863 96V41.6H444.135V53.44H422.231V62.368H442.039V73.984H422.231V84.16H445.063V96H407.863Z" fill="url(#gullycric-text)"/>
</svg>
